# xmcd CD database file
#
# Track frame offsets:
#	150
#	34708
#	80050
#	106704
#	134617
#	165553
#	190238
#	225513
#	257143
#
# Disc length: 3578 seconds
#
# Revision: 0
# Processed by: cddbd v1.5.2PL0 Copyright (c) Steve Scherf et al.
# Submitted via: CDex 1.51
#
DISCID=6f0df809
DTITLE=Romano Pratesi Quartet - Treno Di Notte
DYEAR=2003
DGENRE=Jazz
TTITLE0=E' oggi primavera
TTITLE1=Soul eyes
TTITLE2=La cima
TTITLE3=Misterioso
TTITLE4=Let's cool one
TTITLE5=We see
TTITLE6=Beatrice
TTITLE7=Blues or not
TTITLE8=Naima
EXTD=YEAR: 2003
EXTT0=
EXTT1=
EXTT2=
EXTT3=
EXTT4=
EXTT5=
EXTT6=
EXTT7=
EXTT8=
PLAYORDER=
